<?xml version="1.0" encoding="UTF-8" standalone="no"?>
<!DOCTYPE svg PUBLIC "-//W3C//DTD SVG 1.1//EN" "http://www.w3.org/Graphics/SVG/1.1/DTD/svg11.dtd">
<!-- Generated by Microsoft Visio, SVG Export data_life_cycle.svg Page-1 -->
<svg xmlns="http://www.w3.org/2000/svg" xmlns:xlink="http://www.w3.org/1999/xlink" xmlns:ev="http://www.w3.org/2001/xml-events"
		xmlns:v="http://schemas.microsoft.com/visio/2003/SVGExtensions/" width="7.98726in" height="6.01876in"
		viewBox="0 0 575.083 433.35" xml:space="preserve" color-interpolation-filters="sRGB" class="st7">
	<v:documentProperties v:langID="1033" v:metric="true" v:viewMarkup="false">
		<v:userDefs>
			<v:ud v:nameU="msvSubprocessMaster" v:prompt="" v:val="VT4(Rectangle)"/>
			<v:ud v:nameU="msvNoAutoConnect" v:val="VT0(1):26"/>
		</v:userDefs>
	</v:documentProperties>

	<style type="text/css">
	<![CDATA[
		.st1 {fill:#000000}
		.st2 {stroke:#4672c4;stroke-linecap:butt;stroke-width:8}
		.st3 {marker-end:url(#mrkr5-6);stroke:#4672c4;stroke-linecap:butt;stroke-width:8}
		.st4 {fill:#4672c4;fill-opacity:1;stroke:#4672c4;stroke-opacity:1;stroke-width:0.76045627376426}
		.st5 {fill:#4672c4;stroke:#c7c8c8;stroke-width:0.25}
		.st6 {fill:#feffff;font-family:Calibri;font-size:1.5em}
		.st7 {fill:none;fill-rule:evenodd;font-size:12px;overflow:visible;stroke-linecap:square;stroke-miterlimit:3}
	]]>
	</style>

	<defs id="Markers">
		<g id="lend5">
			<path d="M 2 1 L 0 0 L 1.98117 -0.993387 C 1.67173 -0.364515 1.67301 0.372641 1.98465 1.00043 " style="stroke:none"/>
		</g>
		<marker id="mrkr5-6" class="st4" v:arrowType="5" v:arrowSize="2" v:setback="2.25625" refX="-2.25625" orient="auto"
				markerUnits="strokeWidth" overflow="visible">
			<use xlink:href="#lend5" transform="scale(-1.315,-1.315) "/>
		</marker>
	</defs>
	<g v:mID="0" v:index="1" v:groupContext="foregroundPage">
		<v:userDefs>
			<v:ud v:nameU="msvThemeOrder" v:val="VT0(0):26"/>
		</v:userDefs>
		<title>Page-1</title>
		<v:pageProperties v:drawingScale="0.0393701" v:pageScale="0.0393701" v:drawingUnits="24" v:shadowOffsetX="8.50394"
				v:shadowOffsetY="-8.50394"/>
		<v:layer v:name="Connector" v:index="0"/>
		<g id="shape32-1" v:mID="32" v:groupContext="shape" transform="translate(298.736,-162.931) rotate(31.373)">
			<title>Curved  arrow.32</title>
			<v:userDefs>
				<v:ud v:nameU="Arrow" v:val="VT0(2):26"/>
				<v:ud v:nameU="CH1" v:val="VT0(5):26"/>
				<v:ud v:nameU="visVersion" v:val="VT0(15):26"/>
			</v:userDefs>
			<path d="M43.87 433.35 L26.32 407.03 L17.55 415.8 L43.87 433.35 ZM43.87 257.89 L26.32 284.2 L17.55 275.43 L43.87 257.89
						 Z" class="st1"/>
			<path d="M43.87 433.35 L26.32 407.03 L17.55 415.8 L43.87 433.35" class="st2"/>
			<path d="M43.87 257.89 L26.32 284.2 L17.55 275.43 L43.87 257.89" class="st2"/>
			<path d="M43.87 257.89 A109.666 109.666 -180 0 0 30.12 421.11 L30.39 421.35" class="st3"/>
		</g>
		<g id="shape30-9" v:mID="30" v:groupContext="shape" transform="translate(-45.4154,367.266) rotate(-90)">
			<title>Curved  arrow.30</title>
			<v:userDefs>
				<v:ud v:nameU="Arrow" v:val="VT0(2):26"/>
				<v:ud v:nameU="CH1" v:val="VT0(5):26"/>
				<v:ud v:nameU="visVersion" v:val="VT0(15):26"/>
			</v:userDefs>
			<path d="M57.28 433.35 L34.37 398.98 L22.91 410.44 L57.28 433.35 ZM57.28 204.22 L34.37 238.59 L22.91 227.13 L57.28 204.22
						 Z" class="st1"/>
			<path d="M57.28 433.35 L34.37 398.98 L22.91 410.44 L57.28 433.35" class="st2"/>
			<path d="M57.28 204.22 L34.37 238.59 L22.91 227.13 L57.28 204.22" class="st2"/>
			<path d="M57.28 204.22 A143.209 143.209 -180 0 0 57.28 433.35" class="st2"/>
		</g>
		<g id="shape31-14" v:mID="31" v:groupContext="shape" transform="translate(-47.917,18.5074) rotate(-33.6901)">
			<title>Curved  arrow.31</title>
			<v:userDefs>
				<v:ud v:nameU="Arrow" v:val="VT0(2):26"/>
				<v:ud v:nameU="CH1" v:val="VT0(5):26"/>
				<v:ud v:nameU="visVersion" v:val="VT0(15):26"/>
			</v:userDefs>
			<path d="M51.1 433.35 L30.66 402.69 L20.44 412.91 L51.1 433.35 ZM51.1 228.94 L30.66 259.6 L20.44 249.38 L51.1 228.94 Z"
					class="st1"/>
			<path d="M51.1 433.35 L30.66 402.69 L20.44 412.91 L51.1 433.35" class="st2"/>
			<path d="M51.1 228.94 L30.66 259.6 L20.44 249.38 L51.1 228.94" class="st2"/>
			<path d="M51.1 228.94 A127.756 127.756 -180 0 0 51.1 433.35" class="st2"/>
		</g>
		<g id="shape27-19" v:mID="27" v:groupContext="shape" transform="translate(727.058,265.675) rotate(120.368)">
			<title>Curved  arrow</title>
			<v:userDefs>
				<v:ud v:nameU="Arrow" v:val="VT0(2):26"/>
				<v:ud v:nameU="CH1" v:val="VT0(5):26"/>
				<v:ud v:nameU="visVersion" v:val="VT0(15):26"/>
			</v:userDefs>
			<path d="M42.05 433.35 L25.23 408.12 L16.82 416.53 L42.05 433.35 ZM42.05 265.14 L25.23 290.37 L16.82 281.96 L42.05 265.14
						 Z" class="st1"/>
			<path d="M42.05 433.35 L25.23 408.12 L16.82 416.53 L42.05 433.35" class="st2"/>
			<path d="M42.05 265.14 L25.23 290.37 L16.82 281.96 L42.05 265.14" class="st2"/>
			<path d="M42.05 265.14 A105.133 105.133 -180 0 0 42.05 433.35" class="st2"/>
		</g>
		<g id="shape29-24" v:mID="29" v:groupContext="shape" transform="translate(379.376,576.499) rotate(-162.104)">
			<title>Curved  arrow.29</title>
			<v:userDefs>
				<v:ud v:nameU="Arrow" v:val="VT0(2):26"/>
				<v:ud v:nameU="CH1" v:val="VT0(5):26"/>
				<v:ud v:nameU="visVersion" v:val="VT0(15):26"/>
			</v:userDefs>
			<path d="M59.58 433.35 L35.75 397.61 L23.83 409.52 L59.58 433.35 ZM59.58 195.05 L35.75 230.79 L23.83 218.88 L59.58 195.05
						 Z" class="st1"/>
			<path d="M59.58 433.35 L35.75 397.61 L23.83 409.52 L59.58 433.35" class="st2"/>
			<path d="M59.58 195.05 L35.75 230.79 L23.83 218.88 L59.58 195.05" class="st2"/>
			<path d="M59.58 195.05 A148.939 148.939 -180 0 0 59.58 433.35" class="st2"/>
		</g>
		<g id="shape1-29" v:mID="1" v:groupContext="shape" transform="translate(198.959,-301.715)">
			<title>Ellipse</title>
			<desc>Creation</desc>
			<v:userDefs>
				<v:ud v:nameU="visVersion" v:val="VT0(15):26"/>
				<v:ud v:nameU="visMasterStencil" v:prompt="" v:val="VT4(Basic_M.vssx)"/>
			</v:userDefs>
			<v:textBlock v:margins="rect(4,4,4,4)" v:tabSpace="42.5197"/>
			<v:textRect cx="88.5827" cy="376.657" width="155.02" height="99.2126"/>
			<path d="M0 376.66 A88.5827 56.6929 0 0 1 177.17 376.66 A88.5827 56.6929 0 1 1 0 376.66 Z" class="st5"/>
			<text x="57.3" y="382.06" class="st6" v:langID="1033"><v:paragraph v:horizAlign="1"/><v:tabList/>Creation</text>		</g>
		<g id="shape2-32" v:mID="2" v:groupContext="shape" transform="translate(379.667,-188.329)">
			<title>Ellipse.2</title>
			<desc>Storage</desc>
			<v:userDefs>
				<v:ud v:nameU="visVersion" v:val="VT0(15):26"/>
				<v:ud v:nameU="visMasterStencil" v:prompt="" v:val="VT4(Basic_M.vssx)"/>
			</v:userDefs>
			<v:textBlock v:margins="rect(4,4,4,4)" v:tabSpace="42.5197"/>
			<v:textRect cx="88.5827" cy="376.657" width="155.02" height="99.2126"/>
			<path d="M0 376.66 A88.5827 56.6929 0 0 1 177.17 376.66 A88.5827 56.6929 0 1 1 0 376.66 Z" class="st5"/>
			<text x="60.52" y="382.06" class="st6" v:langID="1033"><v:paragraph v:horizAlign="1"/><v:tabList/>Storage</text>		</g>
		<g id="shape3-35" v:mID="3" v:groupContext="shape" transform="translate(305.258,-18.25)">
			<title>Ellipse.3</title>
			<desc>Usage</desc>
			<v:userDefs>
				<v:ud v:nameU="visVersion" v:val="VT0(15):26"/>
				<v:ud v:nameU="visMasterStencil" v:prompt="" v:val="VT4(Basic_M.vssx)"/>
			</v:userDefs>
			<v:textBlock v:margins="rect(4,4,4,4)" v:tabSpace="42.5197"/>
			<v:textRect cx="88.5827" cy="376.657" width="155.02" height="99.2126"/>
			<path d="M0 376.66 A88.5827 56.6929 0 0 1 177.17 376.66 A88.5827 56.6929 0 1 1 0 376.66 Z" class="st5"/>
			<text x="66.26" y="382.06" class="st6" v:langID="1033"><v:paragraph v:horizAlign="1"/><v:tabList/>Usage</text>		</g>
		<g id="shape4-38" v:mID="4" v:groupContext="shape" transform="translate(82.0295,-18.25)">
			<title>Ellipse.4</title>
			<desc>Archival</desc>
			<v:userDefs>
				<v:ud v:nameU="visVersion" v:val="VT0(15):26"/>
				<v:ud v:nameU="visMasterStencil" v:prompt="" v:val="VT4(Basic_M.vssx)"/>
			</v:userDefs>
			<v:textBlock v:margins="rect(4,4,4,4)" v:tabSpace="42.5197"/>
			<v:textRect cx="88.5827" cy="376.657" width="155.02" height="99.2126"/>
			<path d="M0 376.66 A88.5827 56.6929 0 0 1 177.17 376.66 A88.5827 56.6929 0 1 1 0 376.66 Z" class="st5"/>
			<text x="59.2" y="382.06" class="st6" v:langID="1033"><v:paragraph v:horizAlign="1"/><v:tabList/>Archival</text>		</g>
		<g id="shape5-41" v:mID="5" v:groupContext="shape" transform="translate(18.25,-188.329)">
			<title>Ellipse.5</title>
			<desc>Destruction</desc>
			<v:userDefs>
				<v:ud v:nameU="visVersion" v:val="VT0(15):26"/>
				<v:ud v:nameU="visMasterStencil" v:prompt="" v:val="VT4(Basic_M.vssx)"/>
			</v:userDefs>
			<v:textBlock v:margins="rect(4,4,4,4)" v:tabSpace="42.5197"/>
			<v:textRect cx="88.5827" cy="376.657" width="155.02" height="99.2126"/>
			<path d="M0 376.66 A88.5827 56.6929 0 0 1 177.17 376.66 A88.5827 56.6929 0 1 1 0 376.66 Z" class="st5"/>
			<text x="45.81" y="382.06" class="st6" v:langID="1033"><v:paragraph v:horizAlign="1"/><v:tabList/>Destruction</text>		</g>
	</g>
</svg>
